<mxfile host="app.diagrams.net" modified="2023-10-04T15:20:19.091Z" agent="Mozilla/5.0 (Windows NT 10.0; Win64; x64) AppleWebKit/537.36 (KHTML, like Gecko) Chrome/117.0.0.0 Safari/537.36" etag="NXmMZ7pfQY7LIu3ymATp" version="22.0.2" type="github">
  <diagram name="Page-1" id="pnpVbXG10b_Qf96l4pHj">
    <mxGraphModel dx="573" dy="765" grid="0" gridSize="10" guides="1" tooltips="1" connect="1" arrows="1" fold="1" page="1" pageScale="1" pageWidth="827" pageHeight="1169" math="0" shadow="0">
      <root>
        <mxCell id="0" />
        <mxCell id="1" parent="0" />
        <mxCell id="EH08t8D45mRtsmgESxYn-16" value="Interfaz de Usuario" style="html=1;overflow=block;blockSpacing=1;whiteSpace=wrap;fontSize=13.3;fontColor=#000000;fontStyle=6;align=center;spacing=0;strokeOpacity=0;fillOpacity=100;rounded=1;absoluteArcSize=1;arcSize=12;fillColor=#fa6800;strokeWidth=0.8;strokeColor=#C73500;" vertex="1" parent="1">
          <mxGeometry x="1151" y="258" width="143" height="90" as="geometry" />
        </mxCell>
        <mxCell id="EH08t8D45mRtsmgESxYn-17" value="Sistema" style="html=1;overflow=block;blockSpacing=1;whiteSpace=wrap;fontSize=13.3;fontColor=#000000;fontStyle=6;align=center;spacing=0;strokeOpacity=0;fillOpacity=100;rounded=1;absoluteArcSize=1;arcSize=12;fillColor=#fa6800;strokeWidth=0.8;strokeColor=#C73500;" vertex="1" parent="1">
          <mxGeometry x="1421" y="258" width="143" height="90" as="geometry" />
        </mxCell>
        <mxCell id="EH08t8D45mRtsmgESxYn-18" value="Alumno/Tutor" style="html=1;overflow=block;blockSpacing=1;shape=umlActor;labelPosition=center;verticalLabelPosition=bottom;verticalAlign=top;whiteSpace=nowrap;fontSize=13.3;fontColor=#333333;fontStyle=2;align=center;spacing=0;strokeColor=#333333;strokeOpacity=100;fillOpacity=100;rounded=1;absoluteArcSize=1;arcSize=12;fillColor=#ffffff;strokeWidth=0.8;lucidId=Yu5MdgyV5tNR;" vertex="1" parent="1">
          <mxGeometry x="956" y="258" width="60" height="135" as="geometry" />
        </mxCell>
        <mxCell id="EH08t8D45mRtsmgESxYn-19" value="" style="html=1;jettySize=18;whiteSpace=wrap;fontSize=13;strokeColor=#333333;strokeOpacity=100;strokeWidth=0.8;rounded=1;arcSize=10;edgeStyle=orthogonalEdgeStyle;startArrow=none;endArrow=block;endFill=1;lucidId=Yu5M0A2JVvTe;" edge="1" parent="1">
          <mxGeometry width="100" height="100" relative="1" as="geometry">
            <Array as="points" />
            <mxPoint x="988" y="465" as="sourcePoint" />
            <mxPoint x="1205" y="466" as="targetPoint" />
          </mxGeometry>
        </mxCell>
        <mxCell id="EH08t8D45mRtsmgESxYn-20" value="Inicia sesion" style="text;html=1;resizable=0;labelBackgroundColor=default;align=center;verticalAlign=middle;fontStyle=2;fontColor=#333333;fontSize=13.3;" vertex="1" parent="EH08t8D45mRtsmgESxYn-19">
          <mxGeometry relative="1" as="geometry">
            <mxPoint as="offset" />
          </mxGeometry>
        </mxCell>
        <mxCell id="EH08t8D45mRtsmgESxYn-21" value="" style="html=1;jettySize=18;whiteSpace=wrap;fontSize=13;strokeColor=#333333;strokeOpacity=100;strokeWidth=0.8;rounded=1;arcSize=10;edgeStyle=orthogonalEdgeStyle;startArrow=none;endArrow=block;endFill=1;exitX=1.074;exitY=0.387;exitPerimeter=0;lucidId=Yu5M8hheeUyh;exitDx=0;exitDy=0;" edge="1" parent="1" source="EH08t8D45mRtsmgESxYn-40">
          <mxGeometry width="100" height="100" relative="1" as="geometry">
            <Array as="points" />
            <mxPoint x="1477" y="623" as="targetPoint" />
          </mxGeometry>
        </mxCell>
        <mxCell id="EH08t8D45mRtsmgESxYn-22" value="Envía solicitud de &lt;br&gt;inicio de visualizacion perfil" style="text;html=1;resizable=0;labelBackgroundColor=default;align=center;verticalAlign=middle;fontStyle=2;fontColor=#333333;fontSize=13.3;" vertex="1" parent="EH08t8D45mRtsmgESxYn-21">
          <mxGeometry relative="1" as="geometry">
            <mxPoint as="offset" />
          </mxGeometry>
        </mxCell>
        <mxCell id="EH08t8D45mRtsmgESxYn-23" value="" style="html=1;jettySize=18;whiteSpace=wrap;fontSize=13;fontFamily=helvetica;strokeColor=#333333;strokeOpacity=100;dashed=1;fixDash=1;dashPattern=16 6;strokeWidth=0.8;rounded=0;startArrow=none;endArrow=none;exitX=0.5;exitY=1;exitPerimeter=0;entryX=0.5;entryY=0.432;entryPerimeter=0;lucidId=Yu5M4GIAFP0a;" edge="1" parent="1" source="EH08t8D45mRtsmgESxYn-16" target="EH08t8D45mRtsmgESxYn-24">
          <mxGeometry width="100" height="100" relative="1" as="geometry">
            <Array as="points" />
            <mxPoint x="1223" y="348" as="sourcePoint" />
            <mxPoint x="1222.5" y="957.9200000000003" as="targetPoint" />
          </mxGeometry>
        </mxCell>
        <mxCell id="EH08t8D45mRtsmgESxYn-24" value="" style="html=1;overflow=block;blockSpacing=1;whiteSpace=wrap;fontSize=13;spacing=0;strokeColor=#f2f2f2;strokeOpacity=100;fillOpacity=100;rounded=1;absoluteArcSize=1;arcSize=12;fillColor=#ced4db;strokeWidth=0.8;lucidId=Yu5MhR-oMSno;" vertex="1" parent="1">
          <mxGeometry x="1207.5" y="444" width="30" height="88" as="geometry" />
        </mxCell>
        <mxCell id="EH08t8D45mRtsmgESxYn-25" value="" style="html=1;jettySize=18;whiteSpace=wrap;fontSize=13;strokeColor=#333333;strokeOpacity=100;dashed=1;fixDash=1;dashPattern=16 6;strokeWidth=0.8;rounded=1;arcSize=10;edgeStyle=orthogonalEdgeStyle;startArrow=none;endArrow=none;exitX=0.5;exitY=0.532;exitPerimeter=0;lucidId=Yu5Migy3NWk_;" edge="1" parent="1" source="EH08t8D45mRtsmgESxYn-18" target="EH08t8D45mRtsmgESxYn-26">
          <mxGeometry width="100" height="100" relative="1" as="geometry">
            <Array as="points" />
            <mxPoint x="991" y="686" as="targetPoint" />
            <mxPoint x="986" y="358" as="sourcePoint" />
          </mxGeometry>
        </mxCell>
        <mxCell id="EH08t8D45mRtsmgESxYn-26" value="" style="html=1;overflow=block;blockSpacing=1;whiteSpace=wrap;fontSize=13;spacing=0;strokeColor=#f2f2f2;strokeOpacity=100;fillOpacity=100;rounded=1;absoluteArcSize=1;arcSize=12;fillColor=#ced4db;strokeWidth=0.8;lucidId=Yu5MhR-oMSno;" vertex="1" parent="1">
          <mxGeometry x="971" y="462" width="30" height="184" as="geometry" />
        </mxCell>
        <mxCell id="EH08t8D45mRtsmgESxYn-27" value="" style="points=[[1.013,0.586,0]];html=1;overflow=block;blockSpacing=1;whiteSpace=wrap;fontSize=13;spacing=0;strokeColor=#f2f2f2;strokeOpacity=100;fillOpacity=100;rounded=1;absoluteArcSize=1;arcSize=12;fillColor=#ced4db;strokeWidth=0.8;lucidId=Yu5MsRc69goB;" vertex="1" parent="1">
          <mxGeometry x="1477.5" y="572" width="30" height="138" as="geometry" />
        </mxCell>
        <mxCell id="EH08t8D45mRtsmgESxYn-28" value="" style="html=1;jettySize=18;whiteSpace=wrap;fontSize=13;strokeColor=#333333;strokeOpacity=100;strokeWidth=0.8;rounded=1;arcSize=10;edgeStyle=orthogonalEdgeStyle;startArrow=none;endArrow=block;endFill=1;lucidId=Yu5M0A2JVvTe;" edge="1" parent="1">
          <mxGeometry width="100" height="100" relative="1" as="geometry">
            <Array as="points" />
            <mxPoint x="998" y="501" as="sourcePoint" />
            <mxPoint x="1215" y="502" as="targetPoint" />
          </mxGeometry>
        </mxCell>
        <mxCell id="EH08t8D45mRtsmgESxYn-29" value="Selecciona&amp;nbsp; el perfil&lt;br&gt;" style="text;html=1;resizable=0;labelBackgroundColor=default;align=center;verticalAlign=middle;fontStyle=2;fontColor=#333333;fontSize=13.3;" vertex="1" parent="EH08t8D45mRtsmgESxYn-28">
          <mxGeometry relative="1" as="geometry">
            <mxPoint as="offset" />
          </mxGeometry>
        </mxCell>
        <mxCell id="EH08t8D45mRtsmgESxYn-30" value="" style="html=1;jettySize=18;whiteSpace=wrap;fontSize=13;fontFamily=helvetica;strokeColor=#333333;strokeOpacity=100;strokeWidth=0.8;rounded=0;startArrow=none;endArrow=block;endFill=1;exitX=0;exitY=0.5;lucidId=Yu5MB3FtIlV_;exitDx=0;exitDy=0;entryX=0.953;entryY=0.628;entryDx=0;entryDy=0;entryPerimeter=0;" edge="1" parent="1" target="EH08t8D45mRtsmgESxYn-40">
          <mxGeometry width="100" height="100" relative="1" as="geometry">
            <Array as="points" />
            <mxPoint x="1480" y="652" as="sourcePoint" />
            <mxPoint x="1239" y="652" as="targetPoint" />
          </mxGeometry>
        </mxCell>
        <mxCell id="EH08t8D45mRtsmgESxYn-31" value="&lt;div style=&quot;text-align: center;&quot;&gt;&lt;font color=&quot;#333333&quot;&gt;&lt;span style=&quot;background-color: rgb(255, 255, 255);&quot;&gt;&lt;i style=&quot;&quot;&gt;&lt;span style=&quot;font-size: 13px;&quot;&gt;Respuesta de visualización&amp;nbsp;de perfil&lt;/span&gt;&lt;/i&gt;&lt;/span&gt;&lt;/font&gt;&lt;/div&gt;" style="text;whiteSpace=wrap;html=1;" vertex="1" parent="1">
          <mxGeometry x="1296.0000244140624" y="633" width="128" height="38" as="geometry" />
        </mxCell>
        <mxCell id="EH08t8D45mRtsmgESxYn-32" value="" style="html=1;overflow=block;blockSpacing=1;whiteSpace=wrap;fontSize=13;spacing=0;strokeColor=#f2f2f2;strokeOpacity=100;fillOpacity=100;rounded=1;absoluteArcSize=1;arcSize=12;fillColor=#ced4db;strokeWidth=0.8;lucidId=Yu5MydJHa4al;" vertex="1" parent="1">
          <mxGeometry x="1207.5" y="747" width="30" height="90" as="geometry" />
        </mxCell>
        <mxCell id="EH08t8D45mRtsmgESxYn-33" value="" style="html=1;overflow=block;blockSpacing=1;whiteSpace=wrap;fontSize=13;spacing=0;strokeColor=#f2f2f2;strokeOpacity=100;fillOpacity=100;rounded=1;absoluteArcSize=1;arcSize=12;fillColor=#ced4db;strokeWidth=0.8;lucidId=Yu5MydJHa4al;" vertex="1" parent="1">
          <mxGeometry x="1477.5" y="742" width="30" height="113" as="geometry" />
        </mxCell>
        <mxCell id="EH08t8D45mRtsmgESxYn-34" value="" style="html=1;jettySize=18;whiteSpace=wrap;fontSize=13;fontFamily=helvetica;strokeColor=#333333;strokeOpacity=100;strokeWidth=0.8;rounded=0;startArrow=none;endArrow=block;endFill=1;exitX=0;exitY=0.5;entryX=1;entryY=0.5;lucidId=Yu5MB3FtIlV_;exitDx=0;exitDy=0;entryDx=0;entryDy=0;" edge="1" parent="1" source="EH08t8D45mRtsmgESxYn-38">
          <mxGeometry width="100" height="100" relative="1" as="geometry">
            <Array as="points" />
            <mxPoint x="1477.5" y="819" as="sourcePoint" />
            <mxPoint x="1236.5" y="819" as="targetPoint" />
          </mxGeometry>
        </mxCell>
        <mxCell id="EH08t8D45mRtsmgESxYn-35" value="" style="endArrow=none;dashed=1;html=1;dashPattern=1 3;strokeWidth=2;rounded=0;entryX=0.5;entryY=1;entryDx=0;entryDy=0;exitX=0.5;exitY=0;exitDx=0;exitDy=0;" edge="1" parent="1" source="EH08t8D45mRtsmgESxYn-40" target="EH08t8D45mRtsmgESxYn-24">
          <mxGeometry width="50" height="50" relative="1" as="geometry">
            <mxPoint x="1197.5" y="745" as="sourcePoint" />
            <mxPoint x="1247.5" y="695" as="targetPoint" />
          </mxGeometry>
        </mxCell>
        <mxCell id="EH08t8D45mRtsmgESxYn-36" value="" style="endArrow=none;dashed=1;html=1;rounded=0;exitX=0.5;exitY=0;exitDx=0;exitDy=0;" edge="1" parent="1" source="EH08t8D45mRtsmgESxYn-33" target="EH08t8D45mRtsmgESxYn-27">
          <mxGeometry width="50" height="50" relative="1" as="geometry">
            <mxPoint x="1445" y="764" as="sourcePoint" />
            <mxPoint x="1495" y="714" as="targetPoint" />
          </mxGeometry>
        </mxCell>
        <mxCell id="EH08t8D45mRtsmgESxYn-37" value="" style="html=1;jettySize=18;whiteSpace=wrap;fontSize=13;fontFamily=helvetica;strokeColor=#333333;strokeOpacity=100;strokeWidth=0.8;rounded=0;startArrow=none;endArrow=block;endFill=1;exitX=0;exitY=0.5;entryX=1;entryY=0.5;lucidId=Yu5MB3FtIlV_;exitDx=0;exitDy=0;entryDx=0;entryDy=0;" edge="1" parent="1" target="EH08t8D45mRtsmgESxYn-38">
          <mxGeometry width="100" height="100" relative="1" as="geometry">
            <Array as="points" />
            <mxPoint x="1477.5" y="819" as="sourcePoint" />
            <mxPoint x="1236.5" y="819" as="targetPoint" />
          </mxGeometry>
        </mxCell>
        <mxCell id="EH08t8D45mRtsmgESxYn-38" value="Muestra pantalla del perfil" style="text;html=1;resizable=0;labelBackgroundColor=default;align=center;verticalAlign=middle;fontStyle=2;fontColor=#333333;fontSize=13.3;" vertex="1" parent="1">
          <mxGeometry x="1352.998555832473" y="818.0033376379536" as="geometry" />
        </mxCell>
        <mxCell id="EH08t8D45mRtsmgESxYn-39" value="" style="endArrow=none;dashed=1;html=1;dashPattern=1 3;strokeWidth=2;rounded=0;entryX=0.5;entryY=1;entryDx=0;entryDy=0;exitX=0.5;exitY=0;exitDx=0;exitDy=0;" edge="1" parent="1" source="EH08t8D45mRtsmgESxYn-32" target="EH08t8D45mRtsmgESxYn-40">
          <mxGeometry width="50" height="50" relative="1" as="geometry">
            <mxPoint x="1223" y="747" as="sourcePoint" />
            <mxPoint x="1223" y="532" as="targetPoint" />
          </mxGeometry>
        </mxCell>
        <mxCell id="EH08t8D45mRtsmgESxYn-40" value="" style="html=1;overflow=block;blockSpacing=1;whiteSpace=wrap;fontSize=13;spacing=0;strokeColor=#f2f2f2;strokeOpacity=100;fillOpacity=100;rounded=1;absoluteArcSize=1;arcSize=12;fillColor=#ced4db;strokeWidth=0.8;lucidId=Yu5MhR-oMSno;" vertex="1" parent="1">
          <mxGeometry x="1207.5" y="572" width="30" height="127" as="geometry" />
        </mxCell>
        <mxCell id="EH08t8D45mRtsmgESxYn-41" value="" style="endArrow=none;dashed=1;html=1;rounded=0;exitX=0.462;exitY=0.019;exitDx=0;exitDy=0;exitPerimeter=0;" edge="1" parent="1" source="EH08t8D45mRtsmgESxYn-27" target="EH08t8D45mRtsmgESxYn-17">
          <mxGeometry width="50" height="50" relative="1" as="geometry">
            <mxPoint x="1492.05" y="556" as="sourcePoint" />
            <mxPoint x="1492.05" y="524" as="targetPoint" />
          </mxGeometry>
        </mxCell>
      </root>
    </mxGraphModel>
  </diagram>
</mxfile>
